<svg xmlns="http://www.w3.org/2000/svg" viewBox="0 0 100 100">
  <defs>
    <mask id="eye">
      <rect width="100" height="100" fill="white"/>
      <path d="M -9.6 -4.6 L -3.2 -3.4 L -8.6 -2.4 Z" transform="translate(71.80 18.87) rotate(35)" fill="black"/>
    </mask>
  </defs>
  <g fill="currentColor" mask="url(#eye)">
    <path d="M 85.64 26.85 L 86.63 28.45 L 87.54 30.08 L 88.38 31.75 L 89.15 33.46 L 89.84 35.20 L 90.45 36.97 L 90.99 38.77 L 91.44 40.58 L 91.82 42.42 L 92.11 44.27 L 92.32 46.13 L 92.45 48.00 L 92.50 49.87 L 92.46 51.74 L 92.35 53.61 L 92.15 55.47 L 91.86 57.33 L 91.50 59.16 L 91.06 60.98 L 90.53 62.78 L 89.93 64.55 L 89.25 66.30 L 88.49 68.01 L 87.66 69.69 L 84.71 65.46 L 79.69 65.52 L 80.34 64.20 L 80.94 62.85 L 81.47 61.47 L 81.95 60.07 L 82.36 58.66 L 82.71 57.22 L 83.00 55.77 L 83.22 54.31 L 83.38 52.85 L 83.47 51.37 L 83.50 49.90 L 83.46 48.42 L 83.36 46.95 L 83.19 45.48 L 82.96 44.02 L 82.67 42.58 L 82.31 41.15 L 81.89 39.73 L 81.40 38.34 L 80.86 36.96 L 80.26 35.62 L 79.59 34.30 L 78.87 33.01 L 78.10 31.75 Z"/>
    <path d="M 85.88 72.77 L 84.85 74.32 L 83.76 75.82 L 82.59 77.28 L 81.37 78.68 L 80.08 80.02 L 78.74 81.31 L 77.34 82.54 L 75.89 83.70 L 74.39 84.80 L 72.85 85.84 L 71.26 86.80 L 69.62 87.70 L 67.96 88.52 L 66.25 89.27 L 64.52 89.94 L 62.76 90.54 L 60.97 91.06 L 59.16 91.50 L 57.34 91.86 L 55.50 92.14 L 53.65 92.34 L 51.79 92.46 L 49.93 92.50 L 48.07 92.46 L 50.66 87.99 L 48.48 83.47 L 49.95 83.50 L 51.41 83.47 L 52.88 83.38 L 54.33 83.22 L 55.78 83.00 L 57.22 82.71 L 58.65 82.36 L 60.06 81.96 L 61.44 81.48 L 62.81 80.95 L 64.15 80.36 L 65.47 79.71 L 66.75 79.01 L 68.01 78.25 L 69.23 77.43 L 70.41 76.57 L 71.55 75.65 L 72.65 74.68 L 73.71 73.66 L 74.73 72.60 L 75.69 71.50 L 76.61 70.35 L 77.47 69.17 L 78.28 67.95 L 83.30 68.31 Z"/>
    <path d="M 44.53 92.15 L 42.69 91.87 L 40.86 91.51 L 39.05 91.07 L 37.27 90.55 L 35.50 89.95 L 33.77 89.28 L 32.07 88.53 L 30.40 87.71 L 28.77 86.82 L 27.18 85.85 L 25.63 84.82 L 24.13 83.72 L 22.68 82.55 L 21.28 81.33 L 19.93 80.04 L 18.65 78.69 L 17.42 77.29 L 16.26 75.84 L 15.16 74.34 L 14.13 72.79 L 13.17 71.20 L 12.27 69.57 L 11.45 67.90 L 10.71 66.20 L 15.85 66.66 L 19.03 62.77 L 19.62 64.11 L 20.26 65.43 L 20.97 66.71 L 21.73 67.97 L 22.54 69.19 L 23.40 70.37 L 24.32 71.51 L 25.29 72.62 L 26.30 73.68 L 27.36 74.69 L 28.46 75.66 L 29.61 76.58 L 30.79 77.44 L 32.01 78.26 L 33.26 79.02 L 34.55 79.72 L 35.86 80.37 L 37.21 80.96 L 38.57 81.49 L 39.96 81.96 L 41.37 82.37 L 42.80 82.72 L 44.24 83.00 L 45.69 83.22 L 47.48 87.92 Z"/>
    <path d="M 9.49 62.85 L 8.97 61.07 L 8.52 59.26 L 8.16 57.43 L 7.87 55.60 L 7.67 53.75 L 7.54 51.89 L 7.50 50.03 L 7.54 48.17 L 7.66 46.31 L 7.86 44.46 L 8.14 42.63 L 8.51 40.80 L 8.95 38.99 L 9.47 37.21 L 10.07 35.45 L 10.74 33.71 L 11.49 32.01 L 12.32 30.34 L 13.22 28.71 L 14.28 27.18 L 15.40 25.71 L 16.58 24.28 L 17.83 22.91 L 19.12 21.61 L 20.47 26.09 L 24.93 26.95 L 24.03 28.14 L 23.19 29.36 L 22.40 30.62 L 21.67 31.91 L 21.00 33.22 L 20.30 34.51 L 19.65 35.82 L 19.06 37.16 L 18.53 38.53 L 18.05 39.92 L 17.64 41.32 L 17.29 42.75 L 17.01 44.19 L 16.79 45.64 L 16.63 47.09 L 16.53 48.56 L 16.50 50.02 L 16.53 51.49 L 16.63 52.95 L 16.79 54.41 L 17.02 55.86 L 17.30 57.30 L 17.66 58.72 L 18.07 60.13 L 14.57 63.74 Z"/>
    <path d="M 21.75 19.28 L 23.24 18.12 L 24.77 17.04 L 26.35 16.03 L 27.96 15.09 L 29.62 14.23 L 31.30 13.45 L 33.01 12.75 L 34.75 12.13 L 36.51 11.58 L 38.29 11.12 L 40.08 10.74 L 41.89 10.45 L 43.70 10.24 L 45.51 10.10 L 47.32 10.06 L 49.12 10.09 L 50.92 10.20 L 52.71 10.40 L 54.48 10.67 L 56.23 11.03 L 57.96 11.46 L 59.66 11.97 L 61.33 12.55 L 62.97 13.21 L 64.57 13.93 L 63.90 15.60 L 62.30 15.12 L 60.68 14.71 L 59.05 14.37 L 57.41 14.11 L 55.77 13.93 L 54.12 13.81 L 52.48 13.78 L 50.84 13.82 L 49.21 13.93 L 47.59 14.12 L 45.99 14.37 L 44.40 14.70 L 42.84 15.10 L 41.30 15.57 L 39.79 16.11 L 38.31 16.71 L 36.87 17.37 L 35.45 18.10 L 34.08 18.89 L 32.75 19.74 L 31.47 20.64 L 30.23 21.60 L 29.04 22.61 L 27.90 23.67 L 26.81 24.78 L 22.57 23.70 Z"/>
    <path d="M -19.5 -0.8 C -13 -4.8 -6 -7.6 2 -8.0 C 8 -8.3 14 -6.0 16 -2.5 C 17.2 -0.8 17.2 0.8 16 2.5 C 14 6.0 8 8.3 2 8.0 C -4 7.7 -9 5.6 -12.8 3.6 L -17.5 4.6 C -14 2.2 -11 1.2 -8.2 0.9 C -11.5 0.2 -15.5 -0.4 -19.5 -0.8 Z" transform="translate(71.80 18.87) rotate(35)"/>
  </g>
</svg>